<svg width="192" height="90" viewBox="0 0 192 90" fill="none" xmlns="http://www.w3.org/2000/svg">
<rect width="192" height="90" fill="white"/>
<path d="M160.651 21.7824C160.27 22.482 159.865 23.1897 159.73 23.9744C159.509 25.2561 160.724 26.4851 162.008 26.4148C162.736 26.3743 163.39 25.9435 163.904 25.4303C165.709 23.634 166.902 21.4069 167.866 19.0759C169.823 14.3489 171.05 9.2518 170.748 4.1507C170.623 2.03031 169.8 -0.538477 167.125 0.0989919L166.195 1.63864C164.12 0.315082 164.617 3.1999 164.673 4.37354C164.963 10.5659 163.614 16.3436 160.651 21.7824Z" fill="#694271"/>
<path d="M191.06 9.5786C189.55 8.53596 187.775 7.94441 185.984 7.55274C183.854 7.08409 181.618 6.87746 179.511 7.41768C174.07 8.80202 171.424 14.08 169.564 18.8651C169.479 19.0839 169.398 19.3027 169.312 19.5201C169.227 19.7376 169.161 20.2481 169.042 20.3804C170.331 19.0218 171.589 17.6631 173.168 16.638C175.16 15.3455 177.38 14.3677 179.328 13.0252C175.829 15.4347 171.688 17.9778 169.292 21.5852C169.919 21.4501 170.5 21.0287 171.104 20.8072C172.013 20.4736 172.97 20.2562 173.919 20.3156C175.393 20.4088 176.868 20.5952 178.345 20.5371C179.785 20.4804 181.249 20.1698 182.438 19.3675C185.188 17.5105 185.841 13.5425 188.553 11.6342C189.213 11.1696 189.986 10.9305 190.732 10.6469C190.968 10.5578 191.577 10.4268 191.572 10.1607C191.558 9.96621 191.204 9.67719 191.06 9.5786Z" fill="#8BC53F"/>
<path d="M189.268 41.8208C188.687 38.6253 187.693 35.1044 186.177 31.8536C184.401 28.0477 181.911 24.6105 178.532 22.4887C177.679 21.9542 176.746 21.5585 175.768 21.3164C174.98 21.1225 174.154 21.1416 173.376 21.3718C173.219 21.4164 171.593 21.9404 172.002 22.1484C172.989 22.6508 174.272 22.7156 174.928 23.7231C175.585 24.7307 175.492 26.3986 174.754 27.3211C173.965 28.3083 172.741 28.4745 171.639 28.8904C170.026 29.486 168.619 30.5326 167.587 31.9049C167.082 32.5647 166.805 33.3706 166.8 34.2009C166.814 35.9202 167.899 36.2456 169.17 37.0371C171.017 38.177 170.426 39.5964 170.946 41.2563C171.252 42.2327 172.353 43.2402 173.336 43.5293C175.213 44.083 177.182 43.505 179.084 43.8547C179.609 43.9393 180.101 44.1643 180.508 44.5057C181.789 45.6307 178.325 47.0353 176.912 47.8578C176.06 48.3456 175.158 48.7435 174.223 49.045C169.597 50.5779 167.714 56.1139 170.11 60.3898C171.428 62.7425 174.292 63.7824 176.376 65.3072C178.349 66.7483 179.428 67.7869 178.032 70.2435C176.761 72.4814 174.633 74.2763 172.699 75.9321C167.893 80.046 162.001 82.2285 155.79 83.1388C154.924 83.2657 154.057 83.3616 153.192 83.4197C152.902 83.4394 152.619 83.5188 152.362 83.6529C152.104 83.787 151.877 83.9728 151.696 84.1987C151.514 84.4246 151.381 84.6856 151.305 84.9653C151.23 85.245 151.213 85.5373 151.256 85.8237V85.8656C151.339 86.3651 151.6 86.8181 151.991 87.1411C152.382 87.4642 152.876 87.6357 153.384 87.624C155.111 87.597 156.833 87.4485 158.539 87.1797C171.485 85.0836 181.968 77.1855 187.228 65.1951C190.302 58.1816 190.635 49.3408 189.268 41.8208Z" fill="#694271"/>
<path d="M151.737 74.7275H151.794C153.064 74.6761 154.29 73.493 155.227 72.7475C156.408 71.834 157.481 70.7891 158.424 69.6331C160.602 66.8995 161.99 62.8478 160.174 59.5754C158.939 57.351 156.545 56.0491 154.215 55.0064C149.306 52.8042 144.144 51.2134 138.845 50.27C137.572 50.0431 136.246 49.8364 135.171 49.1206C134.095 48.4048 133.349 47.0097 133.816 45.8077C134.284 44.6057 135.684 44.1006 136.956 44.0263C138.227 43.952 139.529 44.187 140.764 43.9034C143.457 43.2875 144.992 40.5445 147.039 38.6929C148.915 36.9966 151.35 35.9836 153.133 34.1914C155.473 31.8455 156.421 28.3191 155.924 25.0548C155.427 21.7905 153.59 18.8111 151.124 16.6111C153.507 16.4804 155.897 16.662 158.233 17.1513C158.975 17.3066 159.734 17.4943 160.484 17.3755C161.234 17.2566 161.974 16.7421 162.098 15.9952C162.311 14.6581 160.618 13.9072 159.28 13.6776C153.242 12.6444 146.996 12.5215 141.013 13.8397C135.03 15.1578 129.311 17.9657 124.965 22.274C117.201 29.9722 114.582 39.9435 115.291 50.8372C115.385 52.2972 115.977 54.1812 117.442 54.161C118.282 54.1502 118.969 53.4155 119.216 52.6159C119.464 51.8164 119.378 50.9561 119.318 50.1214C118.656 40.9699 121.681 33.2987 127.579 26.2528C127.917 25.8476 128.356 25.4141 128.882 25.4735C129.859 25.5869 129.808 27.0469 129.362 27.9221C128.164 30.2788 126.789 32.1912 125.571 34.5399C124.761 36.1157 124.291 37.8432 124.192 39.6111C124.093 41.379 124.366 43.148 124.994 44.8042C126.267 48.0996 128.44 50.8008 131.765 52.0311C133.796 52.782 136.28 53.2223 137.226 55.1604C138.047 56.8405 135.949 58.5503 135.383 59.9711C135.08 60.7941 135.004 61.683 135.163 62.5453C135.316 63.5096 135.696 64.4591 136.371 65.1681C137.397 66.2486 138.952 66.6362 140.433 66.7888C142.194 66.9671 143.954 66.9684 145.646 67.564C146.508 67.8785 147.276 68.404 147.881 69.0922C148.486 69.7803 148.908 70.6091 149.109 71.5023C149.444 73.1189 149.684 74.7558 151.737 74.7275ZM154.406 31.9711C154.428 31.9603 154.451 31.9535 154.473 31.9427L154.405 32.0035C154.405 31.9927 154.406 31.9805 154.406 31.9711V31.9711Z" fill="#694271"/>
<path fill-rule="evenodd" clip-rule="evenodd" d="M7.6601 44.4315C7.05792 44.5566 6.44851 44.6818 5.83189 44.8069C5.23483 44.9263 4.65764 45.1291 4.11742 45.4093C3.18801 45.8862 2.3957 46.5913 1.81523 47.4581C1.23306 48.3317 0.823519 49.3081 0.608602 50.3348C0.406139 51.3445 0.286122 52.3689 0.249731 53.3979C0.213618 54.4379 0.168477 55.4733 0.114308 56.5042C0.0384704 58.6093 0.00055235 60.7252 0.00055235 62.8519C-0.00513488 63.1815 0.0331181 63.5103 0.114308 63.8297C0.190145 64.0999 0.440675 64.2687 0.868613 64.3187C1.47915 64.4192 2.09698 64.4694 2.71579 64.4686C3.34777 64.4686 3.96349 64.4938 4.56297 64.5442C4.6824 64.5441 4.80174 64.5504 4.92048 64.5631C5.03394 64.5701 5.14764 64.5539 5.25459 64.5155C5.36154 64.4771 5.4595 64.4173 5.54244 64.3397C5.62538 64.2622 5.69155 64.1686 5.7369 64.0646C5.78225 63.9607 5.80582 63.8486 5.80615 63.7352C5.80615 63.3476 5.8197 63.0154 5.84407 62.7398C5.86935 62.3383 5.88831 61.9434 5.90095 61.5554C5.91359 61.1673 5.93255 60.7851 5.95783 60.4087C6.00839 59.6065 6.05849 58.8232 6.10815 58.0588C6.1578 57.2943 6.23544 56.525 6.34108 55.7506C6.39118 55.3252 6.45483 54.8552 6.52932 54.3406C6.59365 53.8641 6.73401 53.4008 6.94507 52.9685C7.08856 52.6899 7.25862 52.4258 7.4529 52.1797C7.66223 51.9086 7.89565 51.6568 8.15033 51.4274C8.398 51.2065 8.67791 51.0243 8.98048 50.8872C9.26196 50.7528 9.57394 50.6946 9.88511 50.7184C10.148 50.7481 10.3994 50.8427 10.6164 50.9937C10.8335 51.1446 11.0094 51.347 11.1283 51.5828C11.2066 51.7395 11.2701 51.9032 11.3179 52.0717C11.7729 53.2865 12.052 54.5599 12.1467 55.8533C12.2469 57.1687 12.3223 58.4657 12.3728 59.7443C12.3986 60.245 12.3986 60.7467 12.3728 61.2475L12.297 62.752C12.2615 63.081 12.2938 63.4137 12.3918 63.7298C12.4821 63.9549 12.7773 64.0927 13.2775 64.1431L15.2005 64.2552C15.5029 64.2813 15.8108 64.3002 16.1241 64.3119C16.4373 64.3236 16.7578 64.3425 17.0856 64.3686H17.5568C17.7207 64.3683 17.8822 64.3294 18.0281 64.2552C18.1145 64.2184 18.1924 64.1645 18.2571 64.0967C18.3218 64.0289 18.372 63.9486 18.4046 63.8608C18.481 63.6697 18.5196 63.4656 18.5184 63.2598C18.5177 63.0389 18.4987 62.8185 18.4615 62.6007C18.4274 62.4148 18.4084 62.2265 18.4046 62.0375C18.3789 61.6108 18.3545 61.1786 18.3288 60.7396C18.303 60.3007 18.2787 59.8699 18.2543 59.4431C18.3048 58.8416 18.3549 58.1398 18.4046 57.3375C18.4552 56.5303 18.556 55.727 18.7066 54.9322C18.8308 54.3575 18.9946 53.7921 19.1968 53.2399C19.3868 52.7073 19.6672 52.2112 20.0256 51.7732C20.2489 51.5004 20.5091 51.2599 20.7989 51.0587C21.07 50.8667 21.378 50.7324 21.7035 50.6644C22.0337 50.5911 22.3788 50.6259 22.6876 50.7636C22.9964 50.9013 23.2525 51.1345 23.418 51.4288C23.8447 52.1227 24.1642 52.8766 24.3659 53.6653C24.5667 54.4492 24.7052 55.2476 24.7803 56.0532C25.0331 58.5404 25.0331 61.0467 24.7803 63.534C24.7302 63.9864 24.8128 64.2673 25.0254 64.3808C25.3163 64.5084 25.6331 64.5662 25.9504 64.5496C27.1313 64.5001 28.3248 64.5001 29.531 64.5496C29.6699 64.5487 29.8086 64.536 29.9454 64.5118C30.098 64.4865 30.2414 64.4218 30.3611 64.3241C30.5131 64.1707 30.6118 63.9729 30.6428 63.7595C30.6808 63.5165 30.6808 63.2691 30.6428 63.0262C30.6049 62.7641 30.5548 62.5075 30.4925 62.2563C30.4351 62.048 30.4033 61.8335 30.3977 61.6175C30.348 60.664 30.3291 59.724 30.3408 58.7975C30.3526 57.871 30.3593 56.931 30.3611 55.9775C30.335 55.0258 30.2781 54.0732 30.1905 53.1197C30.1042 52.1646 29.9227 51.2204 29.6488 50.3011C29.4149 49.4777 29.1188 48.6732 28.7631 47.8944C28.4056 47.1022 27.8819 46.3958 27.2274 45.8226C26.5061 45.1998 25.6364 44.7724 24.7018 44.5814C23.7353 44.3809 22.7437 44.3303 21.7617 44.4315C20.7624 44.5295 19.78 44.7565 18.8393 45.1068C17.9576 45.4254 17.1262 45.8684 16.3705 46.4222L15.9182 46.799C15.7851 46.914 15.6318 47.0034 15.4659 47.0624C15.31 47.1123 15.1406 47.0987 14.9946 47.0246C14.7866 46.902 14.6219 46.7179 14.5234 46.4979C14.524 46.4927 14.5235 46.4875 14.5218 46.4826C14.5202 46.4778 14.5174 46.4733 14.5137 46.4697C14.5101 46.466 14.5056 46.4632 14.5007 46.4616C14.4958 46.4599 14.4906 46.4594 14.4854 46.46L12.9023 45.5579C12.3781 45.2618 11.8289 45.0119 11.261 44.811C10.6996 44.6121 10.1185 44.4736 9.52759 44.3977C9.26978 44.365 9.01014 44.3488 8.75026 44.3491C8.38531 44.3491 8.02089 44.3767 7.6601 44.4315V44.4315ZM62.9941 44.4315C62.391 44.5566 61.7816 44.6818 61.1659 44.8069C60.5684 44.9263 59.9908 45.1291 59.4501 45.4093C58.5209 45.8865 57.7287 46.5915 57.1479 47.4581C56.5667 48.3321 56.1577 49.3083 55.9426 50.3348C55.7402 51.3445 55.6201 52.3689 55.5838 53.3979C55.5458 54.4379 55.5007 55.4733 55.4483 56.5042C55.3725 58.6093 55.3346 60.7252 55.3346 62.8519C55.3289 63.1815 55.3671 63.5103 55.4483 63.8297C55.5224 64.1053 55.7738 64.2682 56.2026 64.3187C56.8127 64.4192 57.4301 64.4693 58.0485 64.4686C58.6804 64.4686 59.2966 64.4938 59.897 64.5442C60.0164 64.5441 60.1358 64.5504 60.2545 64.5631C60.3679 64.5699 60.4815 64.5536 60.5884 64.5151C60.6953 64.4766 60.7931 64.4168 60.876 64.3393C60.9589 64.2618 61.0251 64.1683 61.0705 64.0644C61.1159 63.9605 61.1396 63.8485 61.1402 63.7352C61.1402 63.348 61.1528 63.0163 61.1781 62.7398C61.2038 62.3347 61.2214 61.9443 61.235 61.5554C61.2485 61.1664 61.2661 60.7842 61.2918 60.4087C61.3415 59.6065 61.3916 58.8232 61.4422 58.0588C61.4927 57.2943 61.5704 56.525 61.6751 55.7506C61.7248 55.3256 61.7875 54.8556 61.8633 54.3406C61.9279 53.8643 62.0677 53.4011 62.2777 52.9685C62.4217 52.6899 62.5923 52.4258 62.7869 52.1797C62.9959 51.9082 63.2293 51.6564 63.4844 51.4274C63.7318 51.2068 64.0112 51.0246 64.3131 50.8872C64.5947 50.753 64.9066 50.6948 65.2178 50.7184C65.4807 50.7486 65.732 50.8434 65.9492 50.9943C66.1664 51.1451 66.3427 51.3473 66.4623 51.5828C66.5402 51.7395 66.6032 51.9032 66.6506 52.0717C67.106 53.2865 67.3855 54.5598 67.4807 55.8533C67.5809 57.1687 67.6563 58.4657 67.7069 59.7443C67.7312 60.2458 67.7312 60.7468 67.7069 61.2475C67.6811 61.7485 67.6568 62.2509 67.631 62.752C67.5956 63.081 67.6278 63.4137 67.7258 63.7298C67.8161 63.9549 68.1113 64.0927 68.6115 64.1431L70.5345 64.2552C70.8351 64.2808 71.1439 64.2997 71.4581 64.3119C71.7723 64.3241 72.0919 64.343 72.4182 64.3686H72.8895C73.0534 64.3686 73.2149 64.3297 73.3608 64.2552C73.4475 64.2187 73.5257 64.1649 73.5907 64.097C73.6557 64.0292 73.706 63.9488 73.7386 63.8608C73.814 63.6694 73.8521 63.4654 73.851 63.2598C73.8504 63.0389 73.8314 62.8185 73.7941 62.6007C73.7611 62.4147 73.7425 62.2264 73.7386 62.0375C73.7129 61.6108 73.6885 61.1786 73.6628 60.7396C73.6371 60.3007 73.6127 59.8699 73.5869 59.4431C73.6384 58.8416 73.689 58.1398 73.7386 57.3375C73.7894 56.5304 73.8898 55.7271 74.0393 54.9322C74.1647 54.3578 74.3285 53.7925 74.5295 53.2399C74.7205 52.7075 75.0012 52.2114 75.3596 51.7732C75.5827 51.5007 75.8425 51.2603 76.1316 51.0587C76.4032 50.8667 76.7116 50.7324 77.0375 50.6644C77.3677 50.5911 77.7128 50.6259 78.0216 50.7636C78.3305 50.9013 78.5866 51.1345 78.752 51.4288C79.1781 52.123 79.4977 52.8768 79.7 53.6653C79.8994 54.4495 80.0379 55.2478 80.1144 56.0532C80.3653 58.5405 80.3653 61.0466 80.1144 63.534C80.0643 63.9864 80.1455 64.2673 80.3595 64.3808C80.6499 64.5082 80.9662 64.566 81.2831 64.5496C82.464 64.5001 83.6579 64.5001 84.865 64.5496C85.004 64.5486 85.1426 64.536 85.2794 64.5118C85.4316 64.4862 85.5744 64.4215 85.6938 64.3241C85.8467 64.1712 85.9459 63.9732 85.9768 63.7595C86.0148 63.5165 86.0148 63.2691 85.9768 63.0262C85.9397 62.7671 85.8891 62.5101 85.8252 62.2563C85.7688 62.0478 85.7374 61.8334 85.7317 61.6175C85.6812 60.664 85.6622 59.724 85.6748 58.7975C85.6875 57.871 85.6938 56.931 85.6938 55.9775C85.6694 55.0258 85.613 54.0732 85.5245 53.1197C85.4375 52.1647 85.256 51.2205 84.9828 50.3011C84.7489 49.4777 84.4528 48.6732 84.0972 47.8944C83.7419 47.1046 83.2215 46.3996 82.5709 45.8266C81.8491 45.2039 80.979 44.7765 80.0439 44.5855C79.0775 44.3849 78.0858 44.3344 77.1039 44.4355C76.105 44.5337 75.1231 44.7607 74.1828 45.1108C73.3011 45.4295 72.4697 45.8725 71.714 46.4263L71.2604 46.8031C71.128 46.9183 70.975 47.0077 70.8094 47.0665C70.653 47.1163 70.4832 47.1027 70.3368 47.0286C70.1294 46.9052 69.9649 46.7214 69.8655 46.5019C69.8661 46.4969 69.8656 46.4918 69.864 46.4871C69.8624 46.4823 69.8598 46.4779 69.8563 46.4743C69.8528 46.4707 69.8485 46.4679 69.8438 46.4661C69.839 46.4643 69.834 46.4637 69.8289 46.4641L68.2445 45.5619C67.7179 45.2637 67.1659 45.0124 66.595 44.811C66.0332 44.6121 65.4516 44.4736 64.8603 44.3977C64.6029 44.3651 64.3437 44.3488 64.0843 44.3491C63.7193 44.3491 63.3549 44.3767 62.9941 44.4315V44.4315ZM39.8977 58.4369C39.5076 58.2983 39.144 58.0946 38.8224 57.8346C38.4926 57.5696 38.2168 57.2441 38.0099 56.8757C37.7967 56.5024 37.6496 56.0953 37.5751 55.6723C37.4027 54.6441 37.5106 53.7608 37.8988 53.0225C38.3061 52.2653 38.9278 51.6444 39.6864 51.237C40.1006 51.0085 40.5673 50.8916 41.0406 50.898H42.5492C43.6561 50.898 44.586 51.3743 45.339 52.3269C45.6662 52.7011 45.9396 53.1188 46.1515 53.5681C46.3734 54.0526 46.4954 54.5767 46.5104 55.1091C46.51 55.4162 46.4462 55.7199 46.323 56.0013C46.1997 56.2827 46.0196 56.5357 45.794 56.7446C45.3382 57.1601 44.816 57.4965 44.2488 57.74C43.7514 57.9645 43.2335 58.1409 42.7023 58.2667C42.175 58.3919 41.6473 58.4923 41.1192 58.5679C41.0073 58.5813 40.8947 58.5881 40.782 58.5882C40.4807 58.5882 40.1817 58.537 39.8977 58.4369V58.4369ZM51.3003 44.0749C51.0871 44.1103 50.8717 44.1306 50.6557 44.1357C50.0779 44.1861 49.5186 44.2235 48.9778 44.2478C48.437 44.2721 47.8903 44.3095 47.3378 44.3599C47.3123 44.3563 47.2862 44.3587 47.2617 44.3668C47.2372 44.375 47.215 44.3887 47.1967 44.4069C47.1785 44.4251 47.1647 44.4473 47.1565 44.4717C47.1483 44.4962 47.146 44.5221 47.1496 44.5476C47.1252 44.9528 47.1117 45.3445 47.1117 45.7321C47.1117 46.1197 47.0995 46.5168 47.0737 46.9165C47.0737 47.3433 46.899 47.4176 46.5469 47.1421C46.1687 46.8161 45.7917 46.4717 45.4162 46.1089C45.0574 45.7595 44.6513 45.4622 44.2095 45.2256C43.8319 45.0245 43.4246 44.8845 43.0029 44.811C42.5673 44.7358 42.126 44.6983 41.6839 44.6989C40.745 44.7002 39.8113 44.8394 38.9131 45.1122C38.071 45.354 37.2657 45.7084 36.5188 46.1656C35.7295 46.6293 35.0172 47.2125 34.4076 47.8944C33.8094 48.5646 33.3026 49.3107 32.9003 50.1133C32.499 50.912 32.2014 51.7584 32.0147 52.6322C31.8255 53.5087 31.7428 54.4047 31.7682 55.3009C31.7955 56.1896 31.9223 57.0725 32.146 57.9331C32.3688 58.8031 32.7116 59.6381 33.1644 60.4142C33.6069 61.1788 34.1661 61.87 34.822 62.463C35.4856 63.0571 36.2713 63.4996 37.1242 63.7595C37.977 64.0318 38.8682 64.1654 39.7636 64.1552C40.6484 64.1415 41.5308 64.0598 42.403 63.9108C43.1915 63.7649 43.963 63.5386 44.7052 63.2355C45.4592 62.9154 46.1201 62.411 46.6268 61.7688C46.7144 61.7251 46.8049 61.6877 46.8977 61.6567C46.895 61.6976 46.9086 61.7379 46.9356 61.7688C46.9493 61.7841 46.9598 61.8021 46.9663 61.8216C46.9728 61.8411 46.9753 61.8617 46.9735 61.8822C47.0233 62.2311 47.0549 62.5822 47.0683 62.9343C47.0806 63.2869 47.1118 63.6385 47.1618 63.9878C47.2048 64.0876 47.2691 64.177 47.35 64.2498C47.3877 64.2938 47.4338 64.3299 47.4857 64.3559C47.5375 64.3819 47.5941 64.3972 47.652 64.401L49.9325 64.3254C50.699 64.2993 51.4719 64.2615 52.251 64.212C52.3275 64.2012 52.3994 64.1689 52.4582 64.1188C52.5462 64.0566 52.5936 63.9999 52.5936 63.9499C52.6676 62.3698 52.7128 60.7905 52.729 59.2121C52.7453 57.6338 52.7642 56.055 52.7859 54.4757C52.8103 51.2928 52.8103 48.1095 52.7859 44.9258C52.7859 44.6251 52.7105 44.4184 52.5597 44.3059C52.3998 44.1887 52.2141 44.1114 52.0181 44.0803C51.9076 44.0611 51.7957 44.0516 51.6836 44.052C51.5554 44.0496 51.4273 44.0572 51.3003 44.0749ZM95.2303 58.4369C94.8408 58.2982 94.4776 58.0945 94.1564 57.8346C93.8271 57.5691 93.5514 57.2437 93.3439 56.8757C93.1317 56.5021 92.9852 56.0951 92.9105 55.6723C92.73 54.6441 92.8369 53.7608 93.2315 53.0225C93.6387 52.2643 94.2616 51.6431 95.0218 51.237C95.4359 51.0085 95.9027 50.8916 96.376 50.898H97.8846C98.9897 50.898 99.9196 51.3743 100.674 52.3269C101.001 52.7015 101.275 53.1191 101.487 53.5681C101.709 54.0526 101.831 54.5767 101.846 55.1091C101.845 55.4162 101.782 55.7199 101.658 56.0013C101.535 56.2827 101.355 56.5357 101.129 56.7446C100.674 57.1601 100.151 57.4965 99.5842 57.74C99.0867 57.9643 98.5688 58.1406 98.0377 58.2667C97.5095 58.3919 96.9818 58.4923 96.4545 58.5679C96.3422 58.5813 96.2291 58.5881 96.116 58.5882C95.8143 58.5881 95.5148 58.5369 95.2303 58.4369V58.4369ZM106.634 44.0749C106.422 44.1087 106.208 44.1277 105.994 44.1317C105.415 44.1821 104.856 44.2194 104.316 44.2438C103.776 44.2681 103.229 44.3054 102.676 44.3559C102.65 44.3523 102.624 44.3546 102.6 44.3628C102.575 44.3709 102.553 44.3847 102.535 44.4029C102.517 44.4211 102.503 44.4433 102.495 44.4677C102.486 44.4921 102.484 44.5181 102.488 44.5436C102.461 44.9461 102.449 45.3409 102.45 45.728C102.45 46.117 102.438 46.5127 102.412 46.9125C102.412 47.3393 102.236 47.4135 101.884 47.138C101.507 46.8121 101.13 46.4677 100.753 46.1048C100.394 45.753 99.9868 45.4538 99.5436 45.2162C99.1659 45.0152 98.7586 44.8752 98.3369 44.8015C97.9009 44.7263 97.4591 44.6888 97.0166 44.6894C96.0776 44.6909 95.1441 44.8302 94.2458 45.1027C93.4042 45.3448 92.5993 45.6992 91.8529 46.1562C91.0633 46.6194 90.351 47.2027 89.7416 47.8849C89.1426 48.5548 88.6353 49.301 88.233 50.1039C87.8352 50.9051 87.5404 51.7532 87.3554 52.6281C87.1674 53.5048 87.0852 54.4007 87.1103 55.2968C87.1386 56.1856 87.2662 57.0685 87.4909 57.9291C87.7138 58.7988 88.0561 59.6337 88.5079 60.4101C88.9509 61.1748 89.5106 61.866 90.1668 62.4589C90.8305 63.0531 91.6162 63.4955 92.469 63.7555C93.3218 64.0279 94.213 64.1615 95.1084 64.1512C95.9928 64.1374 96.8747 64.0557 97.7465 63.9067C98.5351 63.761 99.3066 63.5347 100.049 63.2314C100.803 62.9116 101.465 62.4071 101.972 61.7647C102.059 61.7206 102.15 61.6831 102.243 61.6526C102.241 61.6729 102.243 61.6933 102.25 61.7126C102.256 61.7318 102.267 61.7496 102.28 61.7647C102.308 61.7961 102.321 61.8368 102.318 61.8782C102.368 62.2269 102.4 62.5781 102.412 62.9303C102.425 63.2828 102.456 63.6345 102.507 63.9837C102.549 64.0838 102.613 64.1733 102.695 64.2457C102.732 64.2899 102.778 64.3261 102.83 64.3521C102.882 64.3781 102.939 64.3934 102.997 64.397L105.277 64.3214C106.044 64.2952 106.817 64.2574 107.596 64.2079C107.672 64.1971 107.744 64.1648 107.803 64.1147C107.891 64.0526 107.938 63.9959 107.938 63.9459C108.014 62.3657 108.059 60.7865 108.074 59.2081C108.088 57.6297 108.107 56.0509 108.131 54.4716C108.155 51.2888 108.155 48.1055 108.131 44.9217C108.131 44.621 108.055 44.4144 107.905 44.3018C107.745 44.1846 107.559 44.1073 107.363 44.0763C107.252 44.0571 107.141 44.0476 107.028 44.0479C106.897 44.0463 106.765 44.0553 106.634 44.0749V44.0749Z" fill="#694271"/>
<path fill-rule="evenodd" clip-rule="evenodd" d="M56.6983 76.1239C56.6238 76.024 56.6793 75.843 56.8689 75.5837C57.0213 75.3638 57.1911 75.1565 57.3768 74.9638C57.8102 74.5885 58.3086 74.2951 58.8475 74.0981C59.1621 73.995 59.4833 73.9133 59.809 73.8536C60.1505 73.7911 60.4987 73.7725 60.845 73.7982C61.1464 73.823 61.4376 73.9193 61.6941 74.0792C61.9463 74.2324 62.1802 74.4136 62.3915 74.6194C62.5132 74.7172 62.6207 74.8313 62.7111 74.9584C62.8558 75.1391 62.9905 75.3276 63.1147 75.5229C63.2258 75.6935 63.3202 75.8744 63.3963 76.0631C63.46 76.2252 63.441 76.3076 63.3408 76.3076C63.0646 76.3319 62.7441 76.3504 62.3793 76.363C62.015 76.3765 61.6372 76.3819 61.2485 76.3819C60.8599 76.3819 60.4753 76.3819 60.0988 76.363C59.7223 76.3441 59.4068 76.3441 59.1508 76.3441H58.2841C58.0069 76.3476 57.7298 76.3355 57.454 76.3076H57.0775C57.0035 76.3145 56.929 76.301 56.8621 76.2686C56.7953 76.2363 56.7386 76.1862 56.6983 76.1239V76.1239ZM56.8689 69.6209C55.5859 70.0864 54.3942 70.772 53.3479 71.6468C52.7762 72.1404 52.275 72.7097 51.8583 73.339C51.4435 73.9657 51.1083 74.6412 50.8602 75.35C50.6072 76.0689 50.4302 76.8121 50.332 77.5677C50.232 78.3215 50.2066 79.0833 50.2562 79.842C50.3254 81.0674 50.6129 82.2706 51.1053 83.3954C51.581 84.49 52.2513 85.4898 53.0839 86.3464C53.9167 87.2021 54.8911 87.9084 55.9643 88.4344C57.077 88.9781 58.2885 89.2914 59.5259 89.3554C60.3976 89.4063 61.2722 89.3431 62.1274 89.1677C62.9799 88.9931 63.8043 88.7023 64.5772 88.3034C65.3613 87.8916 66.0793 87.3654 66.7075 86.7421C67.3241 86.1289 67.9335 85.4987 68.5357 84.8513C68.7375 84.6501 68.8065 84.4556 68.7618 84.2679C68.7249 84.1616 68.6653 84.0646 68.5873 83.9835C68.5092 83.9023 68.4144 83.839 68.3095 83.7978C67.7064 83.5223 67.1033 83.2342 66.5003 82.9335C65.8972 82.6328 65.3067 82.3446 64.7289 82.0691C64.5772 81.9935 64.389 82.0191 64.1628 82.1434C63.921 82.2788 63.688 82.4294 63.4654 82.5945C63.2271 82.7701 63.0014 82.9501 62.7883 83.1347C62.6302 83.2804 62.4598 83.4124 62.2791 83.5291C61.9288 83.7298 61.5555 83.8876 61.1673 83.9991C60.7822 84.1119 60.3778 84.1441 59.9796 84.0936C59.1185 84.0147 58.3151 83.6275 57.718 83.0037C57.5433 82.8516 57.3853 82.6814 57.2468 82.4959C57.0559 82.2534 56.8855 81.9954 56.7376 81.7247C56.5958 81.4717 56.4939 81.1984 56.4356 80.9144C56.4055 80.8035 56.4074 80.6865 56.4409 80.5766C56.4744 80.4667 56.5383 80.3685 56.6252 80.2931C56.7348 80.2168 56.8689 80.1836 57.0016 80.1999C57.14 80.2124 57.2794 80.2061 57.416 80.181C59.1663 80.0556 60.9218 80.0178 62.6759 80.0676C64.422 80.1171 66.1748 80.1171 67.9344 80.0676H68.5749C68.6857 80.0755 68.7957 80.0441 68.8855 79.9788C68.9752 79.9135 69.0389 79.8186 69.0652 79.711C69.1448 79.4424 69.1828 79.1632 69.1776 78.8831C69.1783 78.5752 69.1598 78.2676 69.122 77.962C69.0841 77.6622 69.053 77.4367 69.0272 77.2868C68.8274 75.9862 68.3519 74.7431 67.6324 73.6402C66.8959 72.4796 65.9032 71.5022 64.7303 70.7824C63.5516 70.0423 62.2487 69.5203 60.8842 69.2414C60.4445 69.1585 59.9979 69.1169 59.5503 69.1172C58.6333 69.122 57.7248 69.2927 56.8689 69.6209V69.6209ZM95.3631 69.6763C95.2581 70.1385 95.2198 70.6133 95.2493 71.0863V83.9072C95.2493 84.6339 95.2556 85.342 95.2683 86.0317C95.2809 86.7214 95.2746 87.4291 95.2493 88.1548C95.2493 88.632 95.3752 88.9579 95.6271 89.1326C95.9318 89.3247 96.2838 89.4289 96.6442 89.4338C97.1582 89.4841 97.6756 89.4904 98.1907 89.4527C98.7049 89.4148 99.2209 89.4085 99.7359 89.4338C100.062 89.4581 100.294 89.4203 100.433 89.3203C100.569 89.2204 100.665 89.007 100.716 88.6815C100.741 88.4816 100.76 88.2561 100.772 88.0062C100.786 87.7932 100.78 87.5792 100.753 87.3674C100.702 87.0163 100.671 86.7092 100.659 86.4463C100.648 86.1834 100.641 85.8764 100.641 85.5252C100.614 84.3041 100.747 83.0847 101.036 81.8976C101.317 80.7248 101.851 79.6273 102.601 78.6819C103.38 77.6542 104.344 76.781 105.445 76.1077C106.535 75.4279 107.767 75.0095 109.046 74.8854C109.473 74.8355 109.775 74.7342 109.951 74.5843C110.127 74.4344 110.222 74.1453 110.251 73.7199C110.278 73.1437 110.284 72.5607 110.27 71.9709C110.257 71.3812 110.251 70.7986 110.251 70.2233C110.251 69.6722 110.101 69.3643 109.799 69.3022C109.426 69.236 109.046 69.2169 108.668 69.2455L107.368 69.3211C106.928 69.3468 106.495 69.3832 106.068 69.4332C105.216 69.5583 104.381 69.7794 103.579 70.0923C102.77 70.4079 102.029 70.8735 101.393 71.4644C101.268 71.5887 101.135 71.7089 100.997 71.821C100.859 71.9331 100.726 72.0533 100.601 72.1789C100.576 71.9777 100.558 71.7737 100.544 71.5765C100.532 71.3761 100.539 71.1749 100.563 70.9755C100.639 70.3453 100.557 69.8951 100.318 69.625C100.079 69.3549 99.6329 69.2045 98.9802 69.1739C98.5541 69.1739 98.1392 69.1676 97.7357 69.155C97.3294 69.1415 96.9231 69.1239 96.4925 69.0983H96.3828C95.7978 69.0915 95.4578 69.2873 95.3631 69.6763ZM79.2084 83.4751C78.8186 83.3367 78.4554 83.133 78.1345 82.8727C77.8047 82.6077 77.5289 82.2822 77.3219 81.9138C77.109 81.541 76.9619 81.1344 76.8872 80.7118C76.7121 79.6836 76.8191 78.7998 77.2082 78.0606C77.6176 77.3042 78.2411 76.6846 79.0012 76.2792C79.4153 76.0507 79.8821 75.9338 80.3554 75.9402H81.864C82.9691 75.9402 83.899 76.4165 84.6538 77.3691C84.9807 77.7435 85.2541 78.1612 85.4663 78.6103C85.688 79.0949 85.8101 79.6189 85.8252 80.1513C85.8248 80.4584 85.761 80.7621 85.6378 81.0435C85.5145 81.3249 85.3344 81.5779 85.1088 81.7869C84.6524 82.2008 84.1302 82.5363 83.5636 82.7795C83.0659 83.0024 82.5481 83.1774 82.0171 83.3022C81.4907 83.4282 80.963 83.5286 80.434 83.6034C80.3221 83.6168 80.2095 83.6235 80.0968 83.6236C79.7943 83.6247 79.4939 83.5744 79.2084 83.4751V83.4751ZM90.6124 69.1131C90.4006 69.1476 90.1865 69.1666 89.9718 69.1698C89.3931 69.2194 88.8338 69.2567 88.2939 69.2819C87.7541 69.3071 87.2074 69.345 86.654 69.3954C86.6284 69.3918 86.6024 69.3941 86.5779 69.4023C86.5534 69.4105 86.5311 69.4242 86.5129 69.4424C86.4946 69.4606 86.4809 69.4828 86.4727 69.5072C86.4645 69.5316 86.4621 69.5576 86.4657 69.5831C86.4414 69.9883 86.4278 70.3786 86.4278 70.7676C86.4278 71.1565 86.4156 71.5509 86.3899 71.952C86.3899 72.3774 86.2152 72.4531 85.8631 72.1776C85.4857 71.8507 85.1088 71.5072 84.7323 71.1471C84.3736 70.7977 83.9674 70.5004 83.5257 70.2638C83.1482 70.0627 82.7408 69.9232 82.3191 69.8505C81.8836 69.7742 81.4422 69.7362 81 69.7371C80.0611 69.7383 79.1275 69.8776 78.2293 70.1503C77.3872 70.3922 76.5818 70.7466 75.835 71.2038C75.0454 71.6671 74.3331 72.2503 73.7237 72.9325C73.1256 73.6028 72.6188 74.3489 72.2165 75.1515C71.8155 75.9505 71.5175 76.7968 71.3294 77.6703C71.1412 78.5469 71.0594 79.4429 71.0857 80.339C71.1119 81.2278 71.2382 82.1107 71.4622 82.9713C71.685 83.8413 72.0277 84.6762 72.4805 85.4523C72.9226 86.2172 73.4819 86.9085 74.1381 87.5011C74.802 88.0952 75.5876 88.5381 76.4403 88.799C77.2933 89.0703 78.1845 89.2035 79.0797 89.1934C79.9646 89.1803 80.847 89.0986 81.7191 88.9489C82.508 88.8043 83.2796 88.578 84.0213 88.2736C84.7753 87.9536 85.4362 87.4491 85.943 86.8069C86.0305 86.7633 86.121 86.7258 86.2138 86.6948C86.2124 86.7151 86.2151 86.7354 86.2216 86.7547C86.2281 86.7739 86.2383 86.7917 86.2518 86.8069C86.2653 86.8224 86.2757 86.8403 86.2822 86.8598C86.2887 86.8793 86.2913 86.8999 86.2897 86.9204C86.3396 87.2692 86.3708 87.6204 86.3831 87.9725C86.3966 88.325 86.4282 88.6766 86.4779 89.0259C86.521 89.1258 86.5852 89.2151 86.6662 89.2879C86.7037 89.3321 86.7498 89.3682 86.8017 89.3942C86.8536 89.4202 86.9102 89.4355 86.9682 89.4392L89.2487 89.3635C90.0152 89.3392 90.788 89.3019 91.5671 89.2514C91.6437 89.2399 91.7155 89.2071 91.7743 89.1569C91.8624 89.0948 91.9098 89.0381 91.9098 88.9881C91.9838 87.4097 92.0289 85.8305 92.0452 84.2503C92.0614 82.6701 92.0804 81.0913 92.1021 79.5138C92.1264 76.331 92.1264 73.1477 92.1021 69.964C92.1021 69.6623 92.0267 69.4557 91.8759 69.3441C91.7156 69.2274 91.53 69.1501 91.3342 69.1185C91.2238 69.0993 91.1118 69.0898 90.9997 69.0902C90.8702 69.0875 90.7407 69.0952 90.6124 69.1131V69.1131ZM115.857 59.6767C115.251 59.7066 114.651 59.8007 114.065 59.9576C113.523 60.1089 113.252 60.2844 113.252 60.4843V63.9431C113.252 64.0444 113.108 64.1187 112.819 64.1687C112.531 64.2186 112.203 64.27 111.839 64.3199C111.508 64.3632 111.181 64.4258 110.858 64.5077C110.57 64.582 110.425 64.6954 110.425 64.8453C110.425 64.9952 110.432 65.2032 110.444 65.4666C110.456 65.7299 110.463 66.0068 110.463 66.312C110.463 66.6173 110.456 66.8941 110.444 67.1575C110.432 67.4208 110.425 67.6275 110.425 67.7787C110.425 67.903 110.57 68.0043 110.858 68.0786C111.181 68.1602 111.508 68.2234 111.839 68.2677C112.169 68.3109 112.496 68.3736 112.819 68.4554C113.108 68.5297 113.252 68.631 113.252 68.7552C113.252 69.6835 113.246 70.5798 113.234 71.4442C113.221 72.3086 113.208 73.1671 113.196 74.0197C113.184 74.8724 113.171 75.7305 113.158 76.5939C113.144 77.4574 113.125 78.3537 113.101 79.2829C113.076 80.0851 113.039 80.8955 112.988 81.7139C112.938 82.5235 112.938 83.3354 112.988 84.1449C113.028 84.7903 113.148 85.4282 113.346 86.0438C113.562 86.6585 113.874 87.2355 114.27 87.7537C114.655 88.2408 115.136 88.6439 115.683 88.9381C116.12 89.1902 116.599 89.3622 117.097 89.4459C117.405 89.4704 117.713 89.4704 118.021 89.4459C118.382 89.4207 118.752 89.3892 119.133 89.3514C119.513 89.3136 119.877 89.2686 120.227 89.2163C120.521 89.1786 120.811 89.1158 121.094 89.0286C121.57 88.8773 121.953 88.758 122.243 88.6707C122.533 88.5834 122.778 88.5019 122.979 88.4263C123.179 88.352 123.348 88.2831 123.488 88.2196C123.653 88.1411 123.811 88.0466 123.958 87.9373C124.159 87.7874 124.184 87.5241 124.034 87.1486C123.857 86.7252 123.636 86.3218 123.374 85.9453C123.096 85.5329 122.794 85.1374 122.469 84.7608C122.279 84.5261 122.071 84.3062 121.848 84.1031C121.775 84.0416 121.691 83.995 121.601 83.9661C121.51 83.9371 121.415 83.9263 121.32 83.9343C121.105 83.9477 120.891 83.9725 120.679 84.0085L120.002 84.122C119.787 84.1609 119.565 84.1413 119.36 84.0653C119.153 83.993 118.967 83.8705 118.818 83.7087C118.712 83.5833 118.634 83.4356 118.592 83.2765C118.556 83.1349 118.536 82.9893 118.535 82.843V68.716C118.535 68.5648 118.686 68.4581 118.988 68.396C119.29 68.3338 119.616 68.2771 119.968 68.2271C120.32 68.1772 120.645 68.1204 120.949 68.0583C121.252 67.9962 121.401 67.8881 121.401 67.7382V67.1548C121.401 66.8671 121.401 66.5592 121.419 66.2337C121.436 65.9082 121.437 65.607 121.437 65.3315V64.7305C121.437 64.6805 121.28 64.6238 120.966 64.5617C120.652 64.4996 120.313 64.4361 119.949 64.3726C119.585 64.3091 119.245 64.2484 118.931 64.1849C118.617 64.1214 118.46 64.066 118.46 64.0161V60.4843C118.46 60.1584 118.189 59.9333 117.647 59.809C117.203 59.7095 116.748 59.6611 116.293 59.6645C116.155 59.6672 116.007 59.6672 115.857 59.6767V59.6767ZM128.018 59.5254C127.455 59.5341 126.894 59.591 126.341 59.6956C125.825 59.7955 125.567 59.9207 125.568 60.071C125.568 60.8976 125.574 61.6431 125.587 62.3076C125.6 62.9721 125.606 63.6239 125.606 64.2632C125.606 64.9025 125.612 65.5602 125.625 66.2364C125.637 66.9126 125.644 67.6648 125.644 68.4932L125.53 77.7405C125.504 79.0191 125.485 80.2913 125.473 81.5573C125.461 82.8232 125.405 84.095 125.304 85.3726C125.253 85.9489 125.184 86.5319 125.097 87.1216C125.006 87.6846 125.065 88.2613 125.266 88.795C125.392 89.1448 125.568 89.346 125.794 89.396C126.107 89.4539 126.424 89.4793 126.742 89.4716C127.327 89.4965 127.913 89.4775 128.494 89.4149C129.079 89.3512 129.667 89.3322 130.255 89.3581C130.311 89.3611 130.367 89.3487 130.417 89.3223C130.466 89.2959 130.508 89.2564 130.537 89.2082C130.603 89.0998 130.642 88.977 130.65 88.8503C130.663 88.7153 130.669 88.5802 130.669 88.4371V88.1548L130.745 87.0271C130.77 86.6516 130.807 86.2631 130.858 85.8615C130.933 85.1601 131.009 84.4398 131.084 83.7006C131.158 82.971 131.29 82.2484 131.479 81.5397C131.666 80.8448 131.912 80.1671 132.214 79.5138C132.521 78.8555 132.942 78.2568 133.459 77.7459C133.953 77.2135 134.609 76.8572 135.325 76.7317C135.674 76.6682 136.033 76.6754 136.379 76.7529C136.726 76.8304 137.053 76.9766 137.342 77.1828C138.081 77.6391 138.62 78.3575 138.85 79.1938C139.094 80.0035 139.196 80.8493 139.151 81.6937C139.051 83.2243 138.975 84.755 138.925 86.2856C138.9 86.6618 138.906 87.0395 138.944 87.4147C138.981 87.7768 139 88.1406 139.001 88.5046C139.001 89.1051 139.327 89.4059 139.981 89.4068H141.526C142.054 89.4068 142.581 89.4189 143.109 89.4446C143.461 89.4689 143.713 89.4185 143.864 89.2933C144.014 89.1691 144.078 88.93 144.052 88.5802C143.926 86.935 143.907 85.2834 143.995 83.6358C144.085 81.9935 144.142 80.3453 144.166 78.6913C144.164 77.8803 144.062 77.0724 143.864 76.286C143.737 75.8097 143.605 75.346 143.468 74.8949C143.326 74.435 143.129 73.9935 142.883 73.5794C142.511 73.0068 142.054 72.4932 141.529 72.056C140.99 71.6105 140.378 71.261 139.72 71.0228C138.955 70.7538 138.154 70.6017 137.344 70.5717C136.548 70.5491 135.755 70.6764 135.007 70.9472C134.625 71.0752 134.258 71.2455 133.914 71.455C133.562 71.6684 133.21 71.875 132.858 72.0749C132.581 72.255 132.305 72.4432 132.029 72.6394L131.199 73.2405C131.074 73.3404 130.974 73.3782 130.898 73.3539C130.859 73.3385 130.824 73.3129 130.797 73.2797C130.771 73.2464 130.754 73.2068 130.748 73.1648C130.721 73.0601 130.702 72.9535 130.691 72.8461C130.679 72.7398 130.673 72.633 130.672 72.526C130.596 71.3483 130.551 70.2642 130.537 69.2738C130.522 68.2834 130.516 67.3123 130.519 66.3606V63.4488C130.519 62.4719 130.506 61.3942 130.481 60.2156C130.481 59.9657 130.222 59.7834 129.708 59.6753C129.215 59.5708 128.713 59.5196 128.21 59.5227L128.018 59.5254Z" fill="#694271"/>
</svg>
