<svg width="26" height="26" viewBox="0 0 26 26" fill="none" xmlns="http://www.w3.org/2000/svg">
<rect width="26" height="26" fill="white"/>
<path d="M18.119 17.131C17.5286 16.5966 16.8651 16.1631 16.1533 15.84C17.4965 14.863 18.372 13.279 18.372 11.4938C18.372 8.53159 15.9622 6.12197 13 6.12197C10.0378 6.12197 7.6282 8.5316 7.6282 11.4938C7.6282 13.279 8.5037 14.863 9.84672 15.84C9.1351 16.1631 8.47139 16.5964 7.88097 17.1308C6.86862 18.0471 6.1292 19.2054 5.72418 20.4843C3.77129 18.5852 2.55625 15.932 2.55625 13C2.55625 7.24141 7.24141 2.55625 13 2.55625C18.7586 2.55625 23.4438 7.24141 23.4438 13C23.4438 15.9322 22.2287 18.5854 20.2758 20.4845C19.8708 19.2056 19.1316 18.0473 18.119 17.131ZM21.5914 4.40864C19.2967 2.11403 16.245 0.85 13 0.85C9.75477 0.85 6.70325 2.11403 4.40864 4.40864C2.11403 6.70325 0.85 9.75477 0.85 13C0.85 16.245 2.11403 19.2967 4.40864 21.5914C6.70325 23.886 9.75477 25.15 13 25.15C16.245 25.15 19.2967 23.886 21.5914 21.5914C23.886 19.2967 25.15 16.245 25.15 13C25.15 9.75477 23.886 6.70325 21.5914 4.40864ZM13 23.4438C10.8472 23.4438 8.845 22.7885 7.18097 21.6677C7.70816 18.8979 10.1278 16.8656 13 16.8656C15.8724 16.8656 18.2918 18.8979 18.819 21.6677C17.155 22.7885 15.1528 23.4438 13 23.4438ZM9.33445 11.4938C9.33445 9.47256 10.979 7.82822 13 7.82822C15.021 7.82822 16.6656 9.47274 16.6656 11.4938C16.6656 13.5148 15.021 15.1593 13 15.1593C10.979 15.1593 9.33445 13.5148 9.33445 11.4938Z" fill="#694270" stroke="#694270" stroke-width="0.3"/>
</svg>
