<svg width="25" height="21" viewBox="0 0 25 21" fill="none" xmlns="http://www.w3.org/2000/svg">
<rect width="25" height="21" fill="white"/>
<path d="M24.15 7.47499L24.15 7.62499L24.15 9.06245L24.1501 9.21245H24H22.5644L20.7608 18.831L24.15 7.47499ZM24.15 7.47499H24M24.15 7.47499H24M24 7.47499H20.1794L16.12 0.709252C15.8738 0.298368 15.3401 0.164559 14.9281 0.411295L14.928 0.411362C14.5164 0.658279 14.3833 1.19191 14.6302 1.60332L18.1531 7.47499H6.8469M24 7.47499H6.8469M6.8469 7.47499L10.3699 1.60328C10.6167 1.19187 10.4836 0.65823 10.0721 0.411314L10.0718 0.411174C9.65903 0.164499 9.12705 0.298446 8.88019 0.709002L8.88012 0.709124L4.82068 7.47494H1H0.85V7.62494V9.06245V9.21245H1H2.43549L4.23854 18.8304C4.23854 18.8304 4.23855 18.8304 4.23855 18.8304C4.44276 19.9213 5.39613 20.7125 6.50576 20.7125H18.4943C19.6038 20.7125 20.5572 19.9213 20.7608 18.8311L6.8469 7.47499ZM19.0529 18.5112L19.0529 18.5115C19.003 18.7799 18.7682 18.975 18.4942 18.975H6.50576C6.23193 18.975 5.99697 18.7801 5.94639 18.5106C5.94638 18.5106 5.94638 18.5106 5.94638 18.5106L4.20282 9.21245H20.7972L19.0529 18.5112Z" fill="#694270" stroke="#694270" stroke-width="0.3"/>
</svg>
